<svg width="214.013672" height="248.413086" viewBox="0 0 214.014 248.413" fill="none" xmlns="http://www.w3.org/2000/svg" xmlns:xlink="http://www.w3.org/1999/xlink">
	<desc>
			Created with Pixso.
	</desc>
	<defs/>
	<path id="Vector 1" d="M76.582 162.144C66.166 149.583 64.8594 149.048 56.3438 149.608C49.1621 150.08 39.75 150.122 35.9551 150.359C32.1582 150.597 31.4609 150.923 28.9824 148.29C26.5352 145.689 24.4785 143.504 23.207 142.152C21.9336 140.8 19.584 138.304 18.4082 137.055C17.4688 136.057 16.4297 133.032 16.0898 131.391" stroke="#FFD43B" stroke-opacity="1.000000" stroke-width="2.000000" stroke-linecap="round"/>
	<path id="Vector 2" d="M36.8652 145.775C31.7188 146.499 31.3926 145.788 30.2422 145.143C28.543 144.192 27.9551 143.568 24.0215 139.816C21.082 137.011 16.8652 132.426 16.0918 131.39C15.3164 130.354 12.877 127.549 12.1465 125.491C11.7266 124.308 12.0371 123.24 12.2676 122.631" stroke="#FFD43B" stroke-opacity="1.000000" stroke-width="2.000000" stroke-linecap="round"/>
	<path id="Vector 3" d="M36.8633 145.775C29.3223 142.673 25.9492 140.157 25.4512 139.842C25.0527 139.589 21.2578 136.596 19.4102 135.131" stroke="#FFD43B" stroke-opacity="1.000000" stroke-width="2.000000" stroke-linecap="round"/>
	<path id="Vector 4" d="M38.8086 138.448C32.5977 137.825 30.8555 138.483 28.7383 137.142C25.75 135.247 23.5059 132.65 21.4238 131.078C19.5742 129.681 16.5566 127.616 14.5352 124.614" stroke="#FFD43B" stroke-opacity="1.000000" stroke-width="2.000000" stroke-linecap="round"/>
	<path id="Vector 5" d="M38.8125 138.45C32.1523 136.284 30.0977 136.451 26.7168 134.14C22.6758 131.377 19.8672 129.21 17.2949 127.118C15.9648 126.036 12.9707 122.95 12.6758 122.638C12.3828 122.326 8.38281 115.301 8.42578 114.28C8.46875 113.258 7.9043 111.411 9.29297 110.718C11.0684 109.83 13.1719 113.344 15.5215 115.841C17.8711 118.337 19.2051 121.301 20.4883 121.759C22.3027 122.405 24.666 124.301 26.5566 125.856C27.1113 126.314 29.8262 125.917 33.4473 127.414C35.5176 128.27 49.8418 124.34 57.4785 125.196C59.2715 125.396 64.2969 127.672 65.6348 128.31" stroke="#FFD43B" stroke-opacity="1.000000" stroke-width="2.000000" stroke-linecap="round"/>
	<path id="Vector 6" d="M61.3203 126.289C59.3613 124.208 58.9707 123.792 60.0312 120.438C61.0938 117.084 64.3047 111.316 64.6758 109.79C65.0469 108.263 65.041 103.56 65.2422 101.213C65.4453 98.8652 66.123 94.8906 66.0605 93.9697C65.9941 93.0044 64.9004 89.9614 63.6641 90.1431C62.6758 90.2886 62.291 91.1743 62.1816 91.3428" stroke="#FFD43B" stroke-opacity="1.000000" stroke-width="2.000000" stroke-linecap="round"/>
	<path id="Vector 7" d="M55.1113 115.849C56.1992 111.882 57.3164 109.654 58.3105 107.934C59.3027 106.214 60.2324 103.573 60.8691 100.621C61.5059 97.6675 62.1406 94.7144 62.1035 93.1802C62.0664 91.646 62.6738 86.9551 62.4141 85.8257C62.1562 84.6963 60.1719 83.229 59.3359 83.6226C58.9023 83.8271 58.4727 83.9214 58.0781 84.2075C57.7148 84.4717 57.3789 84.8994 57.0996 85.7285C56.248 88.2412 56.7363 88.9731 56.1973 90.1074C54.8516 92.9453 52.918 97.5107 52.6191 99.7539C52.0957 103.681 48.1426 108.873 47.4434 110.904C46.7422 112.936 46.6465 117.09 46.0352 115.172C45.3105 112.91 45.7461 112.304 46.5605 109.968C47.377 107.632 49.7715 104.2 50.125 103.082C50.4805 101.964 52.791 95.668 53.4023 93.3276C54.0117 90.9878 55.4023 87.1289 55.8379 86.5229C56.1855 86.0386 57.5566 84.5063 58.0781 84.2075" stroke="#FFD43B" stroke-opacity="1.000000" stroke-width="2.000000"/>
	<path id="Vector 8" d="M62.3906 88.7905C61.8691 91.439 61.4551 93.1304 59.959 97.9463C59.0117 100.996 58.2129 102.924 56.875 105.557C55.5352 108.191 54.5781 109.093 54.4746 111.545C54.3691 114.005 54.8203 117.889 55.1113 115.85" stroke="#FFD43B" stroke-opacity="1.000000" stroke-width="2.000000" stroke-linecap="round"/>
	<path id="Vector 9" d="M57.5488 84.7153C58.373 82.1748 59.0117 81.5732 58.6719 79.9312C58.2305 77.8008 55.4414 76.4985 53.7363 78.103C51.1797 80.5098 51.0547 81.0186 50.0527 82.9424C48.9316 85.0967 47.9688 86.2778 47.1895 87.7969M47.1895 87.7969C46.4082 89.3164 45.2598 94.7134 44.4805 96.2324C43.6992 97.7515 39.2949 107.587 38.6113 109.21C37.9297 110.833 37.2305 112.865 36.8555 112.041C36.4805 111.216 38.0723 105.009 38.4277 103.891C38.7812 102.773 40.6836 96.4697 41.3418 95.4595C41.998 94.4492 46.5059 89.4199 47.1895 87.7969C47.8711 86.1738 49.291 84.0532 48.9512 82.4111C48.582 80.6304 47.5742 80.4961 46.4766 80.4238C44.334 80.2822 41.8242 84.0186 40.8652 84.9214C39.9062 85.8237 39.8887 86.2324 37.9707 88.0371C36.0547 89.8423 33.5781 92.7617 32.6094 93.8682C31.6426 94.9751 29.6758 100.357 28.5332 103.199C27.3906 106.04 27.5059 105.736 25.9785 107.957C24.4531 110.178 24.373 109.076 23.4512 112.102C22.0254 116.778 21.5488 118.405 21.8164 119.33C22.0156 120.02 23.1035 117.922 23.2617 116.596C23.4199 115.27 24.1934 113.169 24.5176 111.099C24.8398 109.028 24.6465 108.035 25 106.917C25.3535 105.798 25.9043 104.889 26.1426 104.075C26.3828 103.262 26.7012 102.961 26.1484 101.52C25.5957 100.078 22.9141 95.7354 21.4141 97.3438C19.9141 98.9521 21.2734 98.2612 19.1973 101.392C17.1211 104.523 14.9375 105.402 14.4688 106.825C13.998 108.248 14.3223 110.298 14.0566 111.725C13.8457 112.866 13.9062 112.846 13.7656 113.764" stroke="#FFD43B" stroke-opacity="1.000000" stroke-width="2.000000" stroke-linecap="round"/>
	<path id="Vector 1" d="M162.559 191.035C166.92 175.162 167.891 174.117 175.857 170.982C182.576 168.338 191.148 164.349 194.695 162.941C198.24 161.533 199.008 161.531 200.189 158.077C201.357 154.666 202.338 151.801 202.945 150.027C203.553 148.253 204.674 144.979 205.234 143.342C205.682 142.032 205.396 138.838 205.037 137.201" stroke="#3591B2" stroke-opacity="1.000000" stroke-width="2.000000" stroke-linecap="round"/>
	<path id="Vector 2" d="M192.004 159.164C196.975 157.62 196.982 156.834 197.766 155.755C198.924 154.164 199.205 153.345 201.254 148.252C202.787 144.445 204.754 138.474 205.037 137.2C205.32 135.927 206.396 132.334 206.225 130.15C206.125 128.896 205.41 128.058 204.953 127.603" stroke="#3591B2" stroke-opacity="1.000000" stroke-width="2.000000" stroke-linecap="round"/>
	<path id="Vector 3" d="M192.006 159.164C197.598 153.117 199.641 149.388 199.965 148.888C200.225 148.487 202.457 144.143 203.541 142.021" stroke="#3591B2" stroke-opacity="1.000000" stroke-width="2.000000" stroke-linecap="round"/>
	<path id="Vector 4" d="M187.258 153.336C192.652 150.112 194.502 149.966 195.881 147.84C197.828 144.839 198.811 141.519 200.064 139.199C201.178 137.138 203.08 133.97 203.697 130.377" stroke="#3591B2" stroke-opacity="1.000000" stroke-width="2.000000" stroke-linecap="round"/>
	<path id="Vector 5" d="M187.26 153.339C192.432 148.52 194.365 147.793 196.5 144.247C199.049 140.006 200.721 136.834 202.209 133.833C202.979 132.28 204.445 128.194 204.586 127.784C204.725 127.375 205.506 119.279 205.051 118.369C204.596 117.459 204.359 115.538 202.814 115.502C200.84 115.455 200.357 119.549 199.236 122.823C198.115 126.098 198.107 129.363 197.127 130.328C195.742 131.691 194.365 134.426 193.279 136.648C192.959 137.302 190.33 138.103 187.648 141.012C186.115 142.676 171.498 145.234 164.904 149.278C163.357 150.228 159.715 154.446 158.758 155.598" stroke="#3591B2" stroke-opacity="1.000000" stroke-width="2.000000" stroke-linecap="round"/>
	<path id="Vector 6" d="M161.855 151.916C162.789 149.187 162.977 148.641 160.646 146.047C158.318 143.453 153.055 139.584 152.098 138.355C151.139 137.126 149.232 132.849 148.096 130.802C146.959 128.755 144.725 125.433 144.408 124.568C144.076 123.663 143.834 120.428 145.031 120.065C145.988 119.774 146.697 120.415 146.865 120.521" stroke="#3591B2" stroke-opacity="1.000000" stroke-width="2.000000" stroke-linecap="round"/>
	<path id="Vector 7" d="M163.254 139.771C160.652 136.631 158.73 135.083 157.129 133.945C155.527 132.807 153.607 130.805 151.83 128.393C150.051 125.981 148.271 123.569 147.684 122.159C147.094 120.749 144.635 116.744 144.41 115.607C144.188 114.47 145.395 112.287 146.312 112.288C146.791 112.288 147.219 112.189 147.693 112.281C148.133 112.365 148.609 112.61 149.203 113.244C150.996 115.165 150.852 116.038 151.801 116.839C154.18 118.842 157.791 122.165 158.977 124.076C161.049 127.42 166.752 130.448 168.213 131.995C169.676 133.542 171.451 137.278 171.229 135.272C170.967 132.907 170.324 132.542 168.633 130.767C166.943 128.992 163.371 126.898 162.596 126.033C161.818 125.168 157.158 120.436 155.652 118.569C154.146 116.704 151.312 113.791 150.672 113.427C150.158 113.135 148.289 112.329 147.693 112.281" stroke="#3591B2" stroke-opacity="1.000000" stroke-width="2.000000"/>
	<path id="Vector 8" d="M145.639 118.29C147.189 120.475 148.254 121.834 151.57 125.571C153.672 127.938 155.182 129.349 157.469 131.169C159.756 132.99 160.994 133.4 162.084 135.584C163.18 137.776 164.35 141.499 163.256 139.77" stroke="#3591B2" stroke-opacity="1.000000" stroke-width="2.000000" stroke-linecap="round"/>
	<path id="Vector 9" d="M148.381 112.517C146.6 110.56 145.773 110.286 145.416 108.648C144.949 106.523 146.957 104.146 149.158 104.875C152.461 105.969 152.779 106.378 154.473 107.698C156.367 109.176 157.723 109.838 159.049 110.885C160.377 111.932 163.615 116.346 164.941 117.393C166.268 118.439 174.27 125.495 175.551 126.678C176.83 127.861 178.291 129.409 178.297 128.499C178.303 127.589 174.332 122.629 173.555 121.764C172.779 120.899 168.486 115.984 167.48 115.347C166.473 114.71 160.33 112.068 159.049 110.885M159.049 110.885C157.77 109.701 155.617 108.381 155.26 106.744C154.869 104.967 155.73 104.414 156.699 103.878C158.588 102.833 162.391 105.155 163.629 105.565C164.867 105.976 165.049 106.339 167.525 107.159C170.002 107.979 173.439 109.573 174.768 110.166C176.098 110.757 180.072 114.808 182.268 116.902C184.461 118.995 184.232 118.768 186.521 120.134C188.812 121.5 188.438 120.464 190.506 122.819C193.701 126.46 194.797 127.734 194.93 128.69C195.029 129.402 193.188 127.961 192.504 126.823C191.822 125.686 190.266 124.107 189.129 122.364C187.992 120.621 187.766 119.634 186.988 118.769C186.213 117.904 185.344 117.312 184.795 116.676C184.248 116.039 183.834 115.902 183.752 114.355C183.668 112.809 184.34 107.714 186.357 108.534C188.373 109.354 186.857 109.308 190.018 111.266C193.178 113.223 195.52 113.087 196.525 114.18C197.529 115.272 198.07 117.274 198.891 118.457C199.547 119.403 199.482 119.413 199.984 120.186" stroke="#3591B2" stroke-opacity="1.000000" stroke-width="2.000000" stroke-linecap="round"/>
	<path id="Vector 10" d="M157.584 105.777C149.158 92.4316 147.984 91.2988 144.725 90.4707C140.922 89.5054 141.234 89.7988 135.613 84.5142C129.727 78.9785 128.092 75.834 125.035 70.9531C123.33 68.2285 119.852 61.459 118.57 58.4458C117.287 55.4326 115.504 52.9521 115.076 51.9478C114.648 50.9434 110.572 46.105 110.137 44.6924C109.701 43.2793 108.943 40.96 108.93 40.1426C108.914 39.3252 109.104 38.4995 110.861 39.5503C112.621 40.6011 113.359 41.8989 115.857 44.248C118.355 46.5967 119.184 47.1753 121.064 49.3452C122.633 51.1553 122.85 51.8262 124.324 54.2178C125.799 56.6094 125.814 57.4268 127.486 59.4009C128.52 60.6196 129.537 60.6973 128.703 58.7368C127.848 56.728 126.457 53.4126 125.811 51.5996C125.289 50.1382 125.021 49.1064 123.586 47.2974C122.328 45.7144 120.256 44.1655 119.215 43.187C117.965 42.0127 114.051 40.541 113.322 39.856C112.594 39.1709 112.281 38.8774 112.469 37.8477C112.598 37.1333 114.074 36.1445 116.021 36.3696C118.072 36.6064 118.174 36.9702 120.348 37.8203C121.604 38.311 123.107 38.8481 124.262 39.5C127.467 41.3076 129.018 42.1626 130.061 43.3457C131.105 44.5288 131.541 45.9414 132.18 47.3462C132.951 49.041 137.436 55.0991 135.041 52.8486C132.119 50.1011 128.693 44.1558 124.912 41.5171C123.256 40.3599 121.199 39.8325 120.348 37.8203M120.348 37.8203C123.111 32.3921 128.709 36.4512 130.047 36.9062C131.385 37.3613 133.982 39.6035 135.02 40.3779C136.057 41.1519 137.957 44.3438 139.102 45.4204C140.246 46.4966 141.865 48.3359 140.678 47.7056C138.715 46.6631 137.305 45.8413 134.863 43.042C131.939 39.689 129.76 38.0425 130.047 36.9062M130.047 36.9062C130.393 33.416 134.166 34.3452 135.229 34.9512C137.4 36.189 138.648 37.3633 140.209 38.8311C141.771 40.2993 143.123 41.5713 144.686 43.0396C146.246 44.5073 147.301 46.3032 149.186 48.6777C151.07 51.0522 151.898 52.4341 153.371 53.8179C154.723 55.0903 158.006 56.4629 157.307 55.8037C150.801 51.25 153.703 43.8882 152.172 44.0547C151.404 44.1377 148.77 42.6636 147.604 40.3613C146.299 37.7881 145.715 37.7827 146.273 34.6924C146.396 34.0059 147.051 32.4111 147.752 31.666C148.254 31.1338 149.455 29.6523 151.027 31.7329C151.9 32.8892 151.689 34.3633 153.361 36.3374C155.947 39.3901 155.35 38.8101 156.293 40.0991C156.723 40.6855 158.395 43.0781 159.156 45.6016C160.219 49.123 160.377 50.9683 161.027 52.9858C161.328 53.917 161.701 56.229 161.855 59.187C161.961 61.1587 162.422 62.1279 161.953 64.4985C161.484 66.8696 161.572 66.1499 161.111 68.9297C160.65 71.709 160.35 72.0283 160.584 73.6543C160.818 75.2798 166.137 80.8838 168.635 83.2324C170.633 85.1113 174.184 88.4521 175.711 89.8872" stroke="#3591B2" stroke-opacity="1.000000" stroke-width="2.000000" stroke-linecap="round"/>
	<path id="Vector 15" d="M149.85 43.3813C150.25 46.4624 152.74 50.8325 150.65 49.5435C148.979 48.5122 148.193 47.0073 147.846 46.9072" stroke="#3591B2" stroke-opacity="1.000000" stroke-width="2.000000" stroke-linecap="round"/>
	<path id="Vector 12" d="M106.25 84.4165C99.0293 87.9087 94.6289 88.6182 93.332 88.5361C88.9531 89.6396 80.1738 91.3794 79.4707 91.3662C78.1621 91.3418 76.5234 91.2061 76.2773 90.1709C75.8457 88.3525 76.7285 86.7788 78.4609 86.3994C80.1914 86.02 91.5078 83.8081 92.9199 82.7266C94.334 81.645 100.438 79.7534 98.9941 79.2007C97.5527 78.6475 89.4082 80.8291 87.0762 82.0513C84.7461 83.2734 78.457 86.1953 75.9238 87.6304C73.3926 89.0654 67.2754 90.1396 65.3223 89.71C64.8359 89.603 62.7988 88.0679 63.9297 86.1909C64.625 85.0371 73.7383 77.1392 80.1797 73.958C83.1191 72.5059 88.9082 69.2769 89.9102 69.0522C92.1523 68.5488 96.5781 69.373 94.7324 69.77C91.7773 70.4048 86.7441 72.0195 81.6289 74.9194C76.5645 77.7896 66.9453 83.2021 65.5176 83.4663C64.0898 83.7305 59.2188 85.9795 57.3574 84.8311C55.4941 83.6821 54.2969 82.0669 55.332 80.3154C56.3242 78.6387 58.4023 77.1787 60.3613 75.6069C61.1348 74.9873 63.2832 73.0957 65.6172 71.7114C68.1582 70.2041 70.7891 68.6978 71.6855 68.1807C73.4062 67.188 78.8008 65.6333 81.3398 64.6064C83.832 63.5991 89.2129 58.7563 89.4922 57.2114C89.7715 55.666 88.2871 58.4883 84.8457 60.4727C81.4023 62.457 79.459 62.4365 76.7188 63.6758C73.9785 64.915 73.0605 65.0562 70.8535 67.3975C68.6445 69.7393 67.6543 71.0176 65.6172 71.7114" stroke="#3591B2" stroke-opacity="1.000000" stroke-width="2.000000"/>
	<path id="Vector 13" d="M65.3086 71.8223C63.0664 72.3252 62.457 72.5552 61.8496 72.9897C61.2441 73.4238 58.5195 75.4805 57.6973 75.3105C56.877 75.1401 53.7949 74.4517 53.9766 73.2173C54.1602 71.9829 54.0371 70.8638 55.9473 69.0454C57.8594 67.2275 60.6738 64.4517 61.8887 63.7876C63.1035 63.123 66.752 61.1299 67.8555 59.9595C68.959 58.7886 72.0859 56.3062 73.1973 55.5439C74.3086 54.7817 80.1113 53.21 81.7246 51.9155C83.3379 50.6211 86.4863 49.3647 87.4902 48.3003C88.4941 47.2358 91.6367 45.5708 93.7734 44.9702C95.9102 44.3691 96.8223 43.8198 97.7324 43.2705C98.6426 42.7212 99.9551 41.7461 101.061 40.5757C101.943 39.6387 103.732 39.4072 104.518 39.4082" stroke="#3591B2" stroke-opacity="1.000000" stroke-width="2.000000" stroke-linecap="round"/>
	<path id="Vector 14" d="M112.488 39.0732C109.795 37.1421 107.836 36.3037 106.605 36.1514C104.639 35.9067 99.252 36.8682 97.7168 36.8306C96.1816 36.7925 91.4688 36.377 89.4492 37.8926C87.4316 39.4082 81.8105 39.7461 80.6914 40.0996C79.5723 40.4536 77.2461 41.8799 77.0664 43.3184C76.8887 44.7573 77.3672 46.3916 78.873 47.0254C80.4199 47.6758 81.7617 48.3354 83.5938 47.8496C85.4258 47.3638 86.6523 47.2021 88.3809 46.729C89.7051 46.3667 90.8242 46.0132 91.6387 45.7744" stroke="#3591B2" stroke-opacity="1.000000" stroke-width="2.000000" stroke-linecap="round"/>
	<path id="Vector 10" d="M138.744 141.056C130.535 154.735 129.381 155.915 126.135 156.874C122.348 157.991 122.656 157.686 117.123 163.194C111.326 168.964 109.742 172.173 106.766 177.175C105.105 179.967 101.736 186.875 100.504 189.938C99.2695 193.001 97.5273 195.553 97.1152 196.574C96.7051 197.596 92.707 202.596 92.2949 204.026C91.8828 205.456 91.1621 207.805 91.1602 208.623C91.1582 209.44 91.3613 210.258 93.1016 209.137C94.8438 208.016 95.5605 206.688 98.0195 204.24C100.48 201.792 101.299 201.18 103.145 198.936C104.684 197.063 104.887 196.384 106.324 193.934C107.76 191.484 107.762 190.666 109.402 188.625C110.414 187.365 111.43 187.247 110.629 189.241C109.807 191.283 108.471 194.653 107.854 196.491C107.355 197.973 107.104 199.016 105.697 200.881C104.467 202.515 102.418 204.146 101.393 205.166C100.164 206.39 96.2754 208.018 95.5566 208.732C94.8398 209.446 94.5332 209.752 94.7344 210.775C94.875 211.483 96.3672 212.413 98.3125 212.109C100.357 211.791 100.453 211.423 102.613 210.486C103.861 209.944 105.355 209.347 106.5 208.649C109.674 206.713 111.209 205.796 112.234 204.572C113.26 203.348 113.67 201.917 114.287 200.488C115.031 198.762 119.416 192.526 117.059 194.873C114.184 197.736 110.854 203.817 107.117 206.606C105.479 207.83 103.432 208.439 102.613 210.486M102.613 210.486C105.463 215.801 110.992 211.519 112.324 211.01C113.654 210.501 116.215 208.156 117.238 207.34C118.264 206.524 120.111 203.257 121.238 202.135C122.365 201.013 123.953 199.109 122.775 199.788C120.832 200.908 119.436 201.786 117.039 204.683C114.17 208.152 112.02 209.885 112.324 211.01M112.324 211.01C112.725 214.485 116.482 213.405 117.535 212.756C119.686 211.432 120.914 210.208 122.451 208.678C123.988 207.147 125.32 205.821 126.857 204.291C128.395 202.761 129.422 200.923 131.266 198.474C133.111 196.025 133.918 194.61 135.367 193.167C136.699 191.841 139.959 190.337 139.27 191.024C132.84 195.837 135.859 203.081 134.326 202.976C133.559 202.923 130.947 204.503 129.818 206.851C128.557 209.476 127.973 209.505 128.58 212.572C128.715 213.253 129.393 214.821 130.107 215.538C130.617 216.05 131.842 217.482 133.381 215.339C134.234 214.148 134 212.683 135.639 210.643C138.176 207.487 137.588 208.091 138.51 206.764C138.93 206.161 140.562 203.702 141.283 201.148C142.289 197.586 142.418 195.734 143.035 193.692C143.32 192.749 143.656 190.423 143.764 187.459C143.836 185.484 144.281 184.497 143.775 182.146C143.268 179.794 143.369 180.51 142.863 177.75C142.357 174.99 142.051 174.683 142.26 173.048C142.467 171.414 147.693 165.598 150.152 163.149C152.119 161.191 155.617 157.709 157.119 156.213" stroke="#FFD43B" stroke-opacity="1.000000" stroke-width="2.000000" stroke-linecap="round"/>
	<path id="Vector 15" d="M132.016 203.739C132.365 200.644 134.785 196.175 132.717 197.547C131.061 198.646 130.301 200.181 129.957 200.295" stroke="#FFD43B" stroke-opacity="1.000000" stroke-width="2.000000" stroke-linecap="round"/>
	<path id="Vector 12" d="M87.7695 164.47C80.4961 161.269 76.0859 160.736 74.7891 160.87C70.3945 159.942 61.5898 158.556 60.8867 158.597C59.5801 158.674 57.9434 158.875 57.7148 159.92C57.3125 161.755 58.2188 163.293 59.957 163.603C61.6953 163.913 73.041 165.67 74.4707 166.694C75.9004 167.719 82.0332 169.365 80.6016 169.975C79.168 170.586 70.9902 168.732 68.6406 167.604C66.291 166.476 59.957 163.808 57.4023 162.475C54.8477 161.142 48.7148 160.313 46.7715 160.821C46.2852 160.948 44.2734 162.564 45.4336 164.395C46.1484 165.521 55.3848 173.05 61.875 175.972C64.8379 177.305 70.6777 180.3 71.6836 180.485C73.9316 180.898 78.3438 179.896 76.4902 179.574C73.5273 179.058 68.4688 177.646 63.3086 174.952C58.2012 172.286 48.4961 167.262 47.0645 167.055C45.6348 166.848 40.7285 164.795 38.8867 166.018C37.043 167.241 35.8691 168.904 36.9336 170.613C37.9531 172.25 40.0547 173.626 42.0371 175.119C42.8203 175.707 44.998 177.512 47.3535 178.802C49.918 180.207 52.5723 181.607 53.4766 182.088C55.2148 183.011 60.6309 184.349 63.1855 185.273C65.6934 186.18 71.1504 190.806 71.4551 192.339C71.7578 193.872 70.2305 191.11 66.7578 189.265C63.2832 187.419 61.3418 187.518 58.582 186.389C55.8223 185.26 54.9023 185.156 52.6582 182.904C50.4121 180.652 49.4023 179.414 47.3535 178.802" stroke="#FFD43B" stroke-opacity="1.000000" stroke-width="2.000000"/>
	<path id="Vector 13" d="M47.043 178.707C44.793 178.293 44.1797 178.088 43.5684 177.678C42.9551 177.269 40.1973 175.322 39.3789 175.525C38.5605 175.728 35.4922 176.54 35.6934 177.767C35.8965 178.993 35.791 180.117 37.7305 181.858C39.6699 183.599 42.5273 186.261 43.7539 186.876C44.9805 187.491 48.6582 189.337 49.7793 190.463C50.9023 191.589 54.0684 193.945 55.1914 194.663C56.3145 195.38 62.1406 196.718 63.7754 197.948C65.4082 199.177 68.5762 200.307 69.5977 201.33C70.6172 202.354 73.7852 203.893 75.9316 204.407C78.0781 204.922 78.9961 205.435 79.916 205.947C80.8359 206.459 82.1641 207.382 83.2852 208.508C84.1836 209.409 85.9766 209.568 86.7598 209.536" stroke="#FFD43B" stroke-opacity="1.000000" stroke-width="2.000000" stroke-linecap="round"/>
	<path id="Vector 14" d="M94.7383 209.547C92.0742 211.586 90.1309 212.502 88.9023 212.705C86.9414 213.028 81.541 212.283 80.0059 212.382C78.4727 212.482 73.7676 213.087 71.7246 211.652C69.6836 210.218 64.0586 210.106 62.9336 209.797C61.8105 209.489 59.4609 208.156 59.2598 206.726C59.0566 205.294 59.5098 203.642 61.0059 202.947C62.541 202.235 63.8711 201.522 65.7109 201.934C67.5508 202.346 68.7793 202.458 70.5156 202.862C71.8438 203.171 72.9688 203.479 73.7852 203.685" stroke="#FFD43B" stroke-opacity="1.000000" stroke-width="2.000000" stroke-linecap="round"/>
</svg>
