<svg width="48" height="48" viewBox="0 0 48 48" fill="none" xmlns="http://www.w3.org/2000/svg">
<g clip-path="url(#clip0_12387_62112)">
<rect x="48" width="48" height="48" rx="24" transform="rotate(90 48 0)" fill="#3C3F44"/>
<path d="M10.9393 25.0607C10.3536 24.4749 10.3536 23.5251 10.9393 22.9393L20.4853 13.3934C21.0711 12.8076 22.0208 12.8076 22.6066 13.3934C23.1924 13.9792 23.1924 14.9289 22.6066 15.5147L14.1213 24L22.6066 32.4853C23.1924 33.0711 23.1924 34.0208 22.6066 34.6066C22.0208 35.1924 21.0711 35.1924 20.4853 34.6066L10.9393 25.0607ZM36 22.5C36.8284 22.5 37.5 23.1716 37.5 24C37.5 24.8284 36.8284 25.5 36 25.5L36 22.5ZM12 22.5L36 22.5L36 25.5L12 25.5L12 22.5Z" fill="#FBFBFB"/>
</g>
<defs>
<clipPath id="clip0_12387_62112">
<rect x="48" width="48" height="48" rx="24" transform="rotate(90 48 0)" fill="white"/>
</clipPath>
</defs>
</svg>
