<svg width="44" height="44" viewBox="0 0 44 44" fill="none" xmlns="http://www.w3.org/2000/svg">
<path d="M16.5363 11.386C15.2618 9.8485 14.5849 8.91314 13.6093 6.93483C11.658 3.47277 8.64235 2.75681 7.25762 2.41461C5.50249 1.98088 5.35574 0.895266 4.20607 4.78042C3.0564 8.66566 3.02383 12.6933 3.74654 16.6386C3.92822 17.6304 4.1866 18.6727 4.74458 19.5213M41.8373 22.011C41.119 19.4101 40.8086 16.6616 40.5736 13.9745C40.4448 12.5013 40.4281 11.0196 40.272 9.54861C39.9902 6.89278 39.7132 3.66258 38.3334 1.30828C37.5593 -0.0125151 34.1291 3.30104 33.5371 3.90704C31.64 5.84888 29.9784 7.8293 28.9131 10.3493M30.0772 23.0592C29.3212 23.0592 27.8305 22.7814 28.0094 23.9473C28.1055 24.5742 29.1203 24.7895 29.431 24.3695M15.0845 24.1075C15.0845 23.8343 14.9585 23.2019 15.1419 22.9865C15.2755 22.8298 16.0799 22.8873 16.2477 22.9647C16.9352 23.2815 16.8913 24.2406 16.3769 24.6317M15.0728 35.126C16.0484 36.6097 18.9761 37.5989 20.9274 36.6097C21.3118 36.3644 21.799 35.8404 22.2704 35.2317M22.2704 35.2317C22.9495 34.3546 23.5958 33.3017 23.8537 32.6531C24.2312 31.704 24.7145 31.0378 24.1782 30.1679C23.6135 29.2519 20.7034 29.0963 19.9204 30.1679C19.0765 31.3229 19.8565 32.2166 20.4389 33.1476C20.8136 33.7466 21.743 34.8401 22.2704 35.2317ZM22.2704 35.2317C23.0055 35.7775 23.3081 36.2903 24.1782 36.6097C25.3436 37.0375 27.7564 37.1043 29.7077 35.126M35.0739 29.6856C37.4015 29.7102 39.7243 29.8166 42.0529 29.8166M35.0739 34.6314H41.6652M9.91435 28.8247C8.14192 28.8707 6.39597 29.2063 4.61543 29.2178C4.16783 29.2206 1.90134 28.9028 1.90134 29.4798M4.48723 34.5899H9.52767M17.5115 11.3862C18.975 10.8916 20.9268 10.8916 22.8781 10.8916C25.3172 10.8916 27.5597 11.2866 28.732 11.8808C30.6834 12.8699 32.6347 14.8482 34.1838 16.6825C34.9732 17.6172 35.906 18.3808 36.9554 19.0119C38.2192 19.7721 40.6011 21.0342 41.4157 22.2669C42.5482 23.981 42.8537 25.959 42.9723 28.0967C43.0734 29.9196 42.9017 31.6771 42.3913 33.6422C41.9261 35.1392 40.7252 36.4256 39.4643 37.5989C38.7121 38.2989 37.5776 39.2727 36.6825 39.8311C35.6938 40.448 35.0739 41.0609 31.1712 42.0501C28.0871 42.8318 21.6846 43.2316 18.7035 42.8594C16.2686 42.5554 13.6073 42.2 11.308 41.2579C8.38576 40.0606 5.11913 38.3487 3.36476 35.6206C1.18094 32.2246 0.11617 27.983 1.90116 24.2452C4.14222 19.5525 5.31597 19.0119 10.6819 16.6825C11.9962 15.8364 12.3696 15.2864 13.6089 14.3536C14.8361 13.4299 16.1098 11.9783 17.5115 11.3862Z" stroke="black" stroke-width="2" stroke-linecap="round"/>
</svg>
