<svg width="50" height="43" viewBox="0 0 50 43" fill="none" xmlns="http://www.w3.org/2000/svg">
<path d="M26.4482 41.5424C26.4482 39.6405 25.9971 37.1027 27.0392 35.4223C28.0555 33.7835 33.7758 32.1267 32.1349 29.6538C30.6321 27.389 26.0699 27.5392 23.6829 27.5003C22.2929 27.4776 20.6934 27.4841 20.8284 29.3462C21.0052 31.7848 24.6315 32.5166 26.2475 33.6313M31.2652 20.7759C31.2652 21.4547 31.3051 21.2168 31.845 20.8748C32.6689 20.3528 31.4225 19.9046 31.0644 19.787M22.4337 19.787C21.9782 19.8229 21.0147 20.8447 21.6978 21.2374C22.6605 21.7907 23.2366 20.6403 23.2366 19.9848M17.6165 8.31587C15.6716 7.38351 12.9006 7.05349 10.7924 7.70057C8.78774 8.31585 6.70126 10.2725 5.28408 11.722C3.77164 13.269 2.07468 15.1927 1.29222 17.2488C0.327243 19.7845 1.86132 23.0836 4.29169 23.5447C6.70396 24.0023 8.91124 23.9053 11.1938 22.5558M35.1046 7.85812C35.5728 7.39675 36.1474 6.64506 36.9072 6.43709C38.7568 5.93082 41.0797 7.20368 42.5939 8.11819C44.7867 9.44252 47.2183 11.8053 48.1692 14.4031C49.1511 17.0857 49.6156 20.4054 47.5224 22.468C46.0102 23.9581 44.4689 24.0063 42.1279 23.0836M9.23205 34.6179C8.88587 33.2338 8.88579 32.311 9.23172 30.5328C9.56329 28.7176 10.5178 27.2582 10.9935 25.5005C11.5133 23.5795 11.7659 21.631 11.9524 19.6551C12.2116 16.9098 13.3604 14.2782 15.0299 12.0846C16.8818 9.65152 19.1588 8.11618 22.077 7.04133C24.7708 6.04914 28.0371 5.5824 30.8907 6.47398C33.6137 7.32477 36.5426 9.63737 37.5316 12.0736C38.0668 13.3922 38.7722 14.7348 39.048 16.139C39.2276 17.0531 39.8565 19.5806 40.255 20.3153C41.5415 22.7803 42.2698 24.213 42.7946 26.9398C43.3222 29.6811 43.8919 33.396 42.75 36.0485C41.6689 38.5595 39.1912 39.3948 36.751 40.2568C34.1602 41.172 31.3961 41.4031 28.6781 41.5863C26.6807 41.7209 25.4011 42 23.3992 42C22.2018 42 20.308 41.795 19.1333 41.5203C17.7525 41.1975 16.0498 40.8542 14.9714 40.1545C13.7087 39.4701 12.273 38.4471 11.0827 37.5758C9.84675 36.6711 9.86557 36.2441 9.23205 34.6179Z" stroke="black" stroke-width="2" stroke-linecap="round"/>
</svg>
