<svg width="32" height="32" viewBox="0 0 32 32" fill="none" xmlns="http://www.w3.org/2000/svg">
<path d="M29.0611 26.9388L23.1248 21.0001C24.9047 18.6807 25.7357 15.7711 25.4492 12.8615C25.1627 9.95194 23.7802 7.26028 21.5821 5.33256C19.3841 3.40483 16.535 2.38539 13.613 2.48102C10.6909 2.57665 7.9146 3.7802 5.84728 5.84752C3.77996 7.91485 2.57641 10.6911 2.48078 13.6132C2.38514 16.5353 3.40459 19.3843 5.33231 21.5824C7.26004 23.7805 9.95169 25.163 12.8613 25.4494C15.7708 25.7359 18.6804 24.905 20.9998 23.1251L26.9411 29.0676C27.0806 29.2071 27.2463 29.3178 27.4286 29.3933C27.6109 29.4688 27.8063 29.5077 28.0036 29.5077C28.2009 29.5077 28.3963 29.4688 28.5786 29.3933C28.7609 29.3178 28.9265 29.2071 29.0661 29.0676C29.2056 28.928 29.3163 28.7624 29.3918 28.5801C29.4673 28.3978 29.5062 28.2024 29.5062 28.0051C29.5062 27.8077 29.4673 27.6124 29.3918 27.4301C29.3163 27.2477 29.2056 27.0821 29.0661 26.9426L29.0611 26.9388ZM5.49983 14.0001C5.49983 12.3189 5.99835 10.6755 6.93234 9.27773C7.86633 7.87991 9.19385 6.79044 10.747 6.1471C12.3002 5.50375 14.0093 5.33542 15.6581 5.6634C17.3069 5.99137 18.8215 6.80092 20.0102 7.98967C21.199 9.17841 22.0085 10.693 22.3365 12.3418C22.6645 13.9906 22.4961 15.6997 21.8528 17.2529C21.2095 18.8061 20.12 20.1336 18.7222 21.0676C17.3244 22.0016 15.681 22.5001 13.9998 22.5001C11.7462 22.4978 9.58554 21.6015 7.99198 20.0079C6.39842 18.4144 5.50215 16.2537 5.49983 14.0001Z" fill="#A0A5AC"/>
</svg>
