<svg width="40" height="40" viewBox="0 0 40 40" fill="none" xmlns="http://www.w3.org/2000/svg">
<rect x="39.5" y="0.5" width="39" height="39" rx="19.5" transform="rotate(90 39.5 0.5)" stroke="#242629"/>
<g clip-path="url(#clip0_12508_793)" filter="url(#filter0_b_12508_793)">
<g filter="url(#filter1_b_12508_793)">
<path d="M16.5711 13.7144C14.6779 13.7144 13.1426 15.2765 13.1426 17.2038C13.1426 18.7596 13.7426 22.452 19.6486 26.1846C19.7544 26.2508 19.8759 26.2858 19.9997 26.2858C20.1236 26.2858 20.245 26.2508 20.3508 26.1846C26.2569 22.452 26.8569 18.7596 26.8569 17.2038C26.8569 15.2765 25.3215 13.7144 23.4283 13.7144C21.535 13.7144 19.9997 15.8292 19.9997 15.8292C19.9997 15.8292 18.4644 13.7144 16.5711 13.7144Z" stroke="#242629" stroke-width="2" stroke-linecap="round" stroke-linejoin="round"/>
</g>
</g>
<defs>
<filter id="filter0_b_12508_793" x="-88" y="-88" width="216" height="216" filterUnits="userSpaceOnUse" color-interpolation-filters="sRGB">
<feFlood flood-opacity="0" result="BackgroundImageFix"/>
<feGaussianBlur in="BackgroundImageFix" stdDeviation="50"/>
<feComposite in2="SourceAlpha" operator="in" result="effect1_backgroundBlur_12508_793"/>
<feBlend mode="normal" in="SourceGraphic" in2="effect1_backgroundBlur_12508_793" result="shape"/>
</filter>
<filter id="filter1_b_12508_793" x="8.14258" y="8.71436" width="23.7148" height="22.5715" filterUnits="userSpaceOnUse" color-interpolation-filters="sRGB">
<feFlood flood-opacity="0" result="BackgroundImageFix"/>
<feGaussianBlur in="BackgroundImageFix" stdDeviation="2"/>
<feComposite in2="SourceAlpha" operator="in" result="effect1_backgroundBlur_12508_793"/>
<feBlend mode="normal" in="SourceGraphic" in2="effect1_backgroundBlur_12508_793" result="shape"/>
</filter>
<clipPath id="clip0_12508_793">
<rect width="16" height="16" fill="white" transform="translate(12 12)"/>
</clipPath>
</defs>
</svg>
