<svg width="122.002930" height="130.157715" viewBox="0 0 122.003 130.158" fill="none" xmlns="http://www.w3.org/2000/svg" xmlns:xlink="http://www.w3.org/1999/xlink">
	<desc>
			Created with Pixso.
	</desc>
	<defs/>
	<path id="Vector 1" d="M25.3271 129.158C26.3174 113.224 25.751 111.966 19.3867 106.654C14.0186 102.174 7.36426 95.8921 4.53613 93.5161C1.70703 91.1396 1 90.9048 1 87.3657C1 83.8716 1 80.9365 1 79.1196C1 77.3022 1 73.9478 1 72.2705C1 70.9287 2.27246 68.0776 3.12109 66.6797" stroke="#FFD43B" stroke-opacity="1.000000" stroke-width="2.000000" stroke-linecap="round"/>
	<path id="Vector 2" d="M8.21387 90.8604C4.1123 87.9248 4.35352 87.1997 3.9707 85.9683C3.4043 84.1514 3.40527 83.3125 3.12207 78.001C2.91016 74.0312 2.98047 67.9375 3.12207 66.6797C3.26367 65.4219 3.40527 61.7876 4.25391 59.8311C4.74219 58.707 5.66797 58.1538 6.2334 57.874" stroke="#FFD43B" stroke-opacity="1.000000" stroke-width="2.000000" stroke-linecap="round"/>
	<path id="Vector 3" d="M8.21387 90.8604C4.96094 83.5923 4.25293 79.5386 4.1123 78.9795C3.99902 78.5322 3.31055 73.8545 2.98047 71.5718" stroke="#FFD43B" stroke-opacity="1.000000" stroke-width="2.000000" stroke-linecap="round"/>
	<path id="Vector 4" d="M14.4365 86.9438C10.4756 82.334 8.81445 81.6353 8.21289 79.2588C7.36426 75.9043 7.50586 72.5498 7.08203 70.0342C6.70508 67.7979 5.9502 64.3032 6.51562 60.8091" stroke="#FFD43B" stroke-opacity="1.000000" stroke-width="2.000000" stroke-linecap="round"/>
	<path id="Vector 5" d="M14.4355 86.9468C11.1826 80.9365 9.62695 79.6787 8.77832 75.7651C7.76367 71.0864 7.22266 67.6582 6.79883 64.4434C6.5791 62.7803 6.51562 58.5732 6.51562 58.1538C6.51562 57.7344 8.35449 50.0469 9.06152 49.3481C9.76855 48.6494 10.5947 46.9546 12.0312 47.3911C13.8701 47.9502 13.0215 51.8638 13.0215 55.2188C13.0215 58.5732 11.9971 61.5801 12.5977 62.7661C13.4463 64.4434 13.8525 67.3789 14.1533 69.7549C14.2412 70.4536 16.416 71.9912 17.9717 75.4854C18.8613 77.4839 31.5498 84.291 36.3584 90.022C37.4863 91.3662 39.5176 96.3579 40.0361 97.709" stroke="#FFD43B" stroke-opacity="1.000000" stroke-width="2.000000" stroke-linecap="round"/>
	<path id="Vector 6" d="M38.3398 93.3765C38.3398 90.5811 38.3398 90.022 41.3096 88.3447C44.2803 86.6675 50.3623 84.7104 51.6348 83.8716C52.9082 83.0332 56.0195 79.6782 57.7168 78.1411C59.4141 76.604 62.5254 74.2271 63.0908 73.5288C63.6836 72.7964 64.9297 69.8945 63.9395 69.1958C63.1475 68.6367 62.29 69.0093 62.1006 69.0562" stroke="#FFD43B" stroke-opacity="1.000000" stroke-width="2.000000" stroke-linecap="round"/>
	<path id="Vector 7" d="M40.8857 81.7754C44.2803 79.6787 46.5439 78.8398 48.3818 78.2808C50.2207 77.7217 52.625 76.4639 55.0293 74.7866C57.4346 73.1094 59.8389 71.4321 60.8281 70.314C61.8184 69.1958 65.3545 66.2607 65.9199 65.2822C66.4863 64.3037 66.0615 61.9277 65.2129 61.6479C64.7715 61.5029 64.4072 61.2817 63.9404 61.2212C63.5088 61.165 62.9902 61.2456 62.2432 61.6479C59.9795 62.8682 59.8379 63.7168 58.707 64.1641C55.8779 65.2822 51.4932 67.2388 49.7959 68.6362C46.8252 71.083 40.6035 72.1309 38.7646 73.1094C36.9258 74.0879 34.1055 76.9834 34.9453 75.2056C35.9355 73.1094 36.6426 72.9692 38.7646 71.8511C40.8857 70.7334 44.8457 69.8945 45.8359 69.3354C46.8262 68.7764 52.625 65.8408 54.6055 64.583C56.585 63.3252 60.1211 61.5083 60.8281 61.3687C61.3945 61.2568 63.374 61.084 63.9404 61.2212" stroke="#FFD43B" stroke-opacity="1.000000" stroke-width="2.000000"/>
	<path id="Vector 8" d="M63.9385 67.3784C61.8174 68.916 60.4053 69.8433 56.1611 72.2705C53.4727 73.8081 51.6338 74.6465 48.9463 75.625C46.2598 76.6035 44.9863 76.6035 43.2891 78.2808C41.5859 79.9639 39.3291 83.0327 40.8857 81.7749" stroke="#FFD43B" stroke-opacity="1.000000" stroke-width="2.000000" stroke-linecap="round"/>
	<path id="Vector 9" d="M63.2314 61.2285C65.4941 59.9702 66.3428 59.9702 67.1914 58.5728C68.292 56.7588 67.1914 53.9604 64.9287 53.9604C61.5342 53.9604 61.1094 54.2397 59.1289 54.9385C56.9121 55.7212 55.4521 55.917 53.8965 56.4761C52.3408 57.0352 47.9561 60.1099 46.4004 60.6694C44.8447 61.2285 35.2266 65.2817 33.6709 65.9805C32.1152 66.6792 30.2764 67.6577 30.5596 66.8193C30.8418 65.9805 36.0752 62.626 37.0654 62.0669C38.0557 61.5078 43.5713 58.293 44.7031 58.0137C45.834 57.7339 52.3408 57.1748 53.8965 56.4761M53.8965 56.4761C55.4521 55.7773 57.8564 55.2183 58.7051 53.8203C59.625 52.3047 59.0049 51.5332 58.2803 50.7456C56.8662 49.208 52.623 50.1865 51.3506 50.1865C50.0771 50.1865 49.7949 50.4658 47.249 50.4658C44.7031 50.4658 41.0254 50.8853 39.6113 51.0249C38.1973 51.1646 33.2471 53.6807 30.5596 54.9385C27.8721 56.1963 28.1553 56.0566 25.6094 56.6157C23.0635 57.1748 23.7373 56.3364 21.083 57.874C16.9814 60.25 15.5674 61.0884 15.1426 61.9272C14.8262 62.5522 16.9814 61.7876 17.9717 60.9487C18.9619 60.1104 20.8975 59.1318 22.4971 57.874C24.0977 56.6157 24.6191 55.7773 25.6094 55.2183C26.5986 54.6592 27.5889 54.3794 28.2959 53.96C29.0039 53.541 29.4277 53.541 29.9932 52.1431C30.5596 50.7456 31.5498 45.8535 29.4277 45.9932C27.3066 46.1328 28.7207 46.5522 25.1846 47.3911C21.6484 48.2295 19.5283 47.3911 18.2559 48.0898C16.9824 48.7886 15.8516 50.4658 14.7197 51.3047C13.8145 51.9756 13.8711 52.0034 13.1641 52.5625" stroke="#FFD43B" stroke-opacity="1.000000" stroke-width="2.000000" stroke-linecap="round"/>
	<path id="Vector 10" d="M73.1328 100.784C76.9512 85.8281 76.9727 84.2329 75.3955 81.3555C73.5576 78.001 73.5576 78.4204 73.5576 70.8726C73.5566 62.9658 74.6885 59.6909 76.1025 54.2397C76.8926 51.1973 79.3555 44.1763 80.6289 41.2412C81.9014 38.3057 82.4678 35.3706 82.8916 34.3921C83.3164 33.4141 84.0234 27.2637 84.7305 26.0059C85.4375 24.748 86.5693 22.6514 87.1348 22.0923C87.7002 21.5332 88.4082 21.1138 88.832 23.0708C89.2568 25.0273 88.832 26.4253 88.832 29.7798C88.832 33.1343 88.9736 34.1128 88.6904 36.9082C88.4551 39.2393 88.125 39.8433 87.418 42.499C86.7109 45.1548 86.1445 45.7139 85.8623 48.2295C85.6875 49.7827 86.3066 50.5586 87.1348 48.6489C87.9834 46.6919 89.3975 43.4775 90.2461 41.8003C90.9307 40.4478 91.4785 39.564 91.8018 37.3271C92.085 35.3706 91.8018 32.8545 91.8018 31.457C91.8018 29.7798 90.2461 26.0059 90.2461 25.0273C90.2461 24.0488 90.2461 23.6299 91.0947 23.0708C91.6836 22.6831 93.3584 23.0708 94.4893 24.6079C95.6807 26.2266 95.4922 26.5435 96.333 28.6616C96.8193 29.8853 97.4365 31.3164 97.7422 32.5752C98.5908 36.0693 99.0156 37.7466 98.874 39.2842C98.7324 40.8218 98.0254 42.0796 97.46 43.4775C96.7764 45.1646 95.4795 52.4229 95.4795 49.208C95.4795 45.2847 97.3975 38.854 96.7529 34.3921C96.4697 32.4355 95.4795 30.6182 96.333 28.6616M96.333 28.6616C101.985 26.9844 102.834 33.6934 103.4 34.9512C103.966 36.209 104.107 39.564 104.249 40.8218C104.39 42.0796 103.4 45.5737 103.4 47.1113C103.4 48.6489 103.177 51.0356 102.834 49.7671C102.269 47.6704 101.914 46.1162 102.269 42.499C102.692 38.166 102.41 35.5103 103.4 34.9512M103.4 34.9512C106.087 32.8545 107.932 36.165 108.209 37.3271C108.774 39.7036 108.774 41.3809 108.774 43.4775C108.774 45.5737 108.774 47.3911 108.774 49.4878C108.774 51.584 108.209 53.541 107.784 56.4761C107.36 59.4111 106.936 60.9292 106.936 62.9058C106.936 64.7227 108.144 67.981 108.144 67.04C107.042 59.3525 114.149 56.4761 113.018 55.4976C112.452 55.0088 111.745 52.1431 112.594 49.7671C113.542 47.1113 113.159 46.6919 115.705 45.0146C116.271 44.6421 117.826 44.0366 118.816 44.0366C119.523 44.0366 121.362 43.8965 120.938 46.4126C120.702 47.8101 119.523 48.6489 119.241 51.165C118.804 55.0547 118.816 54.2397 118.533 55.7773C118.405 56.4761 117.826 59.2715 116.554 61.5078C114.777 64.6279 113.583 65.9805 112.594 67.7979C112.137 68.6362 110.755 70.4531 108.774 72.5498C107.454 73.9478 107.077 74.9263 105.098 76.1841C103.117 77.4419 103.683 77.0225 101.42 78.5601C99.1572 80.0977 98.7324 80.0977 97.7422 81.3555C96.7529 82.6133 96.3281 90.1611 96.3281 93.5156C96.3281 96.1992 96.3281 100.97 96.3281 103.02" stroke="#3591B2" stroke-opacity="1.000000" stroke-width="2.000000" stroke-linecap="round"/>
	<path id="Vector 15" d="M111.952 53.3931C110.048 55.7461 108.619 60.4517 108.143 58.0991C107.762 56.2168 108.302 54.6479 108.143 54.3345" stroke="#3591B2" stroke-opacity="1.000000" stroke-width="2.000000" stroke-linecap="round"/>
	<path id="Vector 12" d="M54.1797 49.9072C46.9385 47.1118 43.5244 44.4561 42.7236 43.4775C39.0459 41.1016 32.0059 36.0195 31.5498 35.5107C30.7002 34.563 29.7109 33.3052 30.2773 32.4355C31.2715 30.9077 32.9639 30.4785 34.3789 31.457C35.793 32.4355 44.8447 39.0049 46.542 39.2842C48.2393 39.564 53.6143 42.6387 53.0479 41.2412C52.4824 39.8433 45.5518 35.5103 43.1475 34.6719C40.7432 33.833 34.5195 31.3174 31.833 30.4785C29.1455 29.6401 24.3369 26.0059 23.3467 24.3286C23.0996 23.9092 22.8311 21.4292 24.9023 20.9741C26.1758 20.6943 37.7734 21.8794 44.2793 24.3286C47.249 25.4468 53.3574 27.4004 54.1797 27.9629C56.0186 29.2207 58.3691 32.9243 56.8672 31.8765C54.4629 30.1992 49.9922 27.7007 44.5625 26.0059C39.1875 24.3286 29.0039 21.1138 27.873 20.2754C26.7412 19.4365 21.9316 17.4795 21.5078 15.3833C21.083 13.2866 21.4268 11.3486 23.3467 10.9106C25.1846 10.4912 27.5889 10.9902 29.9932 11.3296C30.9414 11.4634 33.6963 11.7227 36.2168 12.4551C38.9619 13.2524 41.7646 14.1133 42.7236 14.4048C44.5625 14.9639 49.2295 17.7593 51.6338 18.8774C53.9932 19.9751 60.9688 20.5547 62.2412 19.7163C63.5146 18.8774 60.5439 19.7163 56.8672 18.5981C53.1895 17.48 51.917 16.082 49.2295 14.9639C46.542 13.8457 45.835 13.2866 42.7236 13.2866C39.6113 13.2866 38.0557 13.4404 36.2168 12.4551" stroke="#3591B2" stroke-opacity="1.000000" stroke-width="2.000000"/>
	<path id="Vector 13" d="M35.9355 12.3086C34.0967 11.0508 33.5303 10.771 32.8232 10.6313C32.1162 10.4917 28.8633 9.93262 28.4395 9.2334C28.0146 8.53467 26.459 5.87891 27.4492 5.18018C28.4395 4.48145 29.1465 3.64258 31.6924 3.78271C34.2383 3.92236 38.0566 4.06201 39.3301 4.48145C40.6025 4.90039 44.4209 6.15869 45.9775 6.15869C47.5332 6.15869 51.3516 6.71777 52.625 6.99707C53.8975 7.27686 58.8477 10.3516 60.8281 10.6313C62.8076 10.9106 65.7783 12.3086 67.1924 12.3086C68.6064 12.3086 71.8604 13.4268 73.6982 14.5449C75.5371 15.6631 76.5273 15.9424 77.5176 16.2222C78.5078 16.5015 80.0635 16.7812 81.6191 16.7812C82.8633 16.7812 84.2119 17.8994 84.7305 18.4585" stroke="#3591B2" stroke-opacity="1.000000" stroke-width="2.000000" stroke-linecap="round"/>
	<path id="Vector 14" d="M90.2461 23.9092C89.8223 20.6948 89.1143 18.7378 88.4072 17.7593C87.2773 16.1958 83.0332 13.0073 82.043 11.8892C81.0527 10.771 78.2236 7.13672 75.8193 6.71729C73.415 6.29834 69.4551 2.52441 68.4648 1.96533C67.4746 1.40625 64.9287 0.70752 63.7979 1.5459C62.666 2.38477 61.832 3.82227 62.3828 5.31982C62.9492 6.85742 63.373 8.25488 64.9287 9.2334C66.4844 10.2119 67.4111 10.9756 68.8896 11.8892C70.0205 12.5879 71.0107 13.147 71.7178 13.5664" stroke="#3591B2" stroke-opacity="1.000000" stroke-width="2.000000" stroke-linecap="round"/>
</svg>
