<svg width="122" height="130" viewBox="0 0 122 130" fill="none" xmlns="http://www.w3.org/2000/svg">
<path d="M25.327 129C26.3169 113.066 25.7512 111.808 19.3866 106.497C14.0182 102.017 7.36461 95.7343 4.5359 93.3581C1.70718 90.982 1.00011 90.7469 1.00006 87.2082C1 83.7139 1 80.7787 1 78.9616C1 77.1446 1 73.7901 1 72.1128C1 70.771 2.27286 67.9196 3.12148 66.5219" stroke="#DDEA41" stroke-width="2" stroke-linecap="round"/>
<path d="M8.21385 90.7025C4.11221 87.7673 4.35347 87.0421 3.96999 85.8105C3.40425 83.9934 3.40441 83.1548 3.12141 77.8435C2.90988 73.8735 2.9801 67.7799 3.12154 66.5219C3.26298 65.264 3.40435 61.6299 4.25353 59.6731C4.74131 58.5491 5.66732 57.9959 6.23306 57.7163" stroke="#DDEA41" stroke-width="2" stroke-linecap="round"/>
<path d="M8.21323 90.7025C4.9602 83.4343 4.25302 79.381 4.11159 78.8219C3.99844 78.3746 3.31012 73.6969 2.9801 71.414" stroke="#DDEA41" stroke-width="2" stroke-linecap="round"/>
<path d="M14.4364 86.7862C10.4762 82.1764 8.81433 81.4775 8.21322 79.1014C7.36461 75.7469 7.50587 72.3924 7.08197 69.8765C6.70517 67.6401 5.95025 64.1458 6.51609 60.6515" stroke="#DDEA41" stroke-width="2" stroke-linecap="round"/>
<path d="M14.4364 86.7889C11.1834 80.7787 9.62758 79.5207 8.77897 75.6071C7.76443 70.9283 7.22317 67.5003 6.79887 64.2856C6.57935 62.6224 6.516 58.4152 6.516 57.9958C6.516 57.5765 8.35466 49.8891 9.06184 49.1902C9.76902 48.4913 10.595 46.7965 12.032 47.2334C13.8707 47.7924 13.022 51.7061 13.022 55.0606C13.022 58.4152 11.9977 61.4223 12.5977 62.6083C13.4463 64.2856 13.853 67.2208 14.1535 69.5969C14.2419 70.2958 16.4165 71.8333 17.9723 75.3276C18.8621 77.326 31.5501 84.1332 36.3589 89.8639C37.4872 91.2084 39.5177 96.2002 40.0363 97.5513" stroke="#DDEA41" stroke-width="2" stroke-linecap="round"/>
<path d="M38.3391 93.2186C38.3391 90.4232 38.3391 89.8641 41.3092 88.1868C44.2794 86.5096 50.3611 84.5528 51.634 83.7141C52.9069 82.8755 56.0185 79.5207 57.7158 77.9835C59.413 76.4462 62.5246 74.0696 63.0903 73.371C63.6831 72.639 64.929 69.7368 63.9389 69.0379C63.1469 68.4788 62.2888 68.8517 62.1003 68.8983" stroke="#DDEA41" stroke-width="2" stroke-linecap="round"/>
<path d="M40.8855 81.6175C44.28 79.521 46.5429 78.6823 48.3816 78.1232C50.2203 77.5642 52.6247 76.3062 55.0291 74.6289C57.4335 72.9517 59.8378 71.2742 60.8278 70.156C61.8179 69.0378 65.3539 66.1028 65.9197 65.1244C66.4854 64.146 66.0611 61.7699 65.2125 61.4904C64.7713 61.345 64.4066 61.1242 63.9394 61.0634M63.9394 61.0634C63.508 61.0073 62.9893 61.0877 62.2423 61.4904C59.9787 62.7105 59.8373 63.5591 58.7064 64.0061C55.8777 65.1244 51.4926 67.081 49.7953 68.4787C46.8246 70.9253 40.6026 71.9731 38.764 72.9515C36.9253 73.9299 34.1053 76.8258 34.9447 75.048C35.9346 72.9515 36.6424 72.8115 38.764 71.6935C40.8855 70.5755 44.8456 69.7368 45.8357 69.1777C46.8257 68.6186 52.6246 65.6833 54.6047 64.4254C56.5848 63.1674 60.1206 61.3505 60.8278 61.2107C61.3937 61.0989 63.3737 60.9261 63.9394 61.0634Z" stroke="#DDEA41" stroke-width="2" stroke-linecap="round"/>
<path d="M63.9389 67.2208C61.8174 68.7583 60.4049 69.6855 56.1609 72.1128C53.4727 73.6503 51.634 74.4889 48.9467 75.4673C46.2595 76.4457 44.9865 76.4457 43.2893 78.123C41.5862 79.8061 39.3293 82.8753 40.8853 81.6173" stroke="#DDEA41" stroke-width="2" stroke-linecap="round"/>
<path d="M63.2304 61.0708C65.4934 59.8129 66.342 59.8129 67.1906 58.4151C68.2918 56.6014 67.1906 53.8027 64.9277 53.8027C61.5332 53.8027 61.1089 54.0822 59.1288 54.7811C56.9119 55.5635 55.4515 55.7594 53.8957 56.3185M53.8957 56.3185C52.3399 56.8776 47.9554 59.9525 46.3996 60.5117C44.8438 61.0708 35.2261 65.1241 33.6703 65.823C32.1145 66.5219 30.2759 67.5003 30.5587 66.6616C30.8416 65.823 36.0747 62.4685 37.0648 61.9094C38.0548 61.3503 43.5708 58.1355 44.7023 57.856C45.8338 57.5765 52.3399 57.0174 53.8957 56.3185ZM53.8957 56.3185C55.4514 55.6197 57.8558 55.0606 58.7045 53.6629C59.6249 52.1469 59.0048 51.3756 58.2801 50.5879C56.8658 49.0505 52.6227 50.0288 51.3498 50.0288C50.0769 50.0288 49.794 50.3083 47.2481 50.3083C44.7023 50.3083 41.025 50.7276 39.6106 50.8674C38.1962 51.0072 33.2461 53.5231 30.5587 54.781C27.8714 56.039 28.1543 55.8992 25.6085 56.4583C23.0626 57.0174 23.7364 56.1788 21.0825 57.7162C16.9809 60.0924 15.5665 60.9311 15.1422 61.7696C14.8259 62.3947 16.9809 61.6298 17.9709 60.7912C18.961 59.9526 20.8969 58.9742 22.4969 57.7162C24.0968 56.4583 24.6184 55.6197 25.6085 55.0606C26.5985 54.5015 27.5885 54.2219 28.2957 53.8026C29.0029 53.3833 29.4272 53.3833 29.993 51.9856C30.5587 50.5879 31.5487 45.6958 29.4272 45.8356C27.3057 45.9754 28.72 46.3948 25.1841 47.2334C21.6482 48.072 19.5281 47.2334 18.2552 47.9323C16.9823 48.6311 15.8507 50.3083 14.7192 51.147C13.814 51.818 13.8707 51.8459 13.1635 52.405" stroke="#DDEA41" stroke-width="2" stroke-linecap="round"/>
<path d="M73.132 100.626C76.9507 85.6708 76.9717 84.0752 75.395 81.1981C73.5566 77.8435 73.5568 78.2628 73.5566 70.7151C73.5563 62.8084 74.6877 59.5333 76.102 54.0823C76.8915 51.0397 79.3551 44.0187 80.628 41.0835C81.9009 38.1483 82.4667 35.2131 82.891 34.2347C83.3153 33.2563 84.0224 27.1063 84.7296 25.8484C85.4368 24.5904 86.5683 22.4938 87.134 21.9347C87.6998 21.3756 88.407 20.9563 88.8313 22.9131C89.2556 24.8699 88.8313 26.2676 88.8313 29.6221C88.8313 32.9767 88.9727 33.9551 88.6898 36.7505C88.4539 39.0819 88.1241 39.6857 87.4169 42.3414C86.7097 44.9971 86.144 45.5561 85.8611 48.072C85.6865 49.6252 86.3058 50.4012 87.134 48.4914C87.9826 46.5346 89.397 43.3198 90.2456 41.6425C90.9298 40.2903 91.4781 39.4062 91.8014 37.1698C92.0843 35.213 91.8014 32.6971 91.8014 31.2994C91.8014 29.6221 90.2456 25.8483 90.2456 24.8699C90.2456 23.8915 90.2456 23.4722 91.0942 22.9131C91.6827 22.5255 93.3572 22.9131 94.4887 24.4506C95.6798 26.0691 95.4913 26.3859 96.3324 28.504M96.3324 28.504C96.8183 29.7275 97.436 31.1586 97.7417 32.4176C98.5903 35.9119 99.0146 37.5891 98.8732 39.1266C98.7318 40.6641 98.0246 41.9221 97.4588 43.3198C96.776 45.0069 95.4787 52.2652 95.4787 49.0504C95.4787 45.1269 97.3966 38.6965 96.7517 34.2347C96.4688 32.2778 95.4787 30.4608 96.3324 28.504ZM96.3324 28.504C101.985 26.8267 102.833 33.5358 103.399 34.7937M103.399 34.7937C103.965 36.0517 104.106 39.4062 104.248 40.6641C104.389 41.922 103.399 45.4164 103.399 46.9539C103.399 48.4914 103.176 50.8782 102.833 49.6095C102.268 47.513 101.913 45.9586 102.268 42.3414C102.692 38.0085 102.409 35.3527 103.399 34.7937ZM103.399 34.7937C106.086 32.6971 107.931 36.0074 108.208 37.1698C108.774 39.546 108.774 41.2232 108.774 43.3198C108.774 45.4164 108.774 47.2334 108.774 49.33C108.774 51.4266 108.208 53.3834 107.784 56.3186C107.359 59.2538 106.935 60.7714 106.935 62.7481C106.935 64.5651 108.143 67.8236 108.143 66.8824C107.041 59.195 114.148 56.3186 113.017 55.3402C112.451 54.851 111.744 51.9857 112.592 49.6095C113.541 46.9539 113.158 46.5346 115.704 44.8573C116.27 44.4846 117.826 43.8789 118.816 43.8789C119.523 43.8789 121.361 43.7391 120.937 46.255C120.701 47.6527 119.523 48.4914 119.24 51.0073C118.803 54.8969 118.816 54.0822 118.533 55.6197C118.404 56.3186 117.826 59.114 116.553 61.3504C114.777 64.4705 113.583 65.8231 112.592 67.6401C112.136 68.4788 110.754 70.2958 108.774 72.3924C107.454 73.7901 107.076 74.7685 105.096 76.0264C103.116 77.2844 103.682 76.8651 101.419 78.4026C99.1561 79.9401 98.7318 79.9402 97.7417 81.1981C96.7517 82.4559 96.3274 90.0036 96.3274 93.3582C96.3274 96.0418 96.3274 100.813 96.3274 102.863" stroke="#59BFEB" stroke-width="2" stroke-linecap="round"/>
<path d="M111.952 53.2353C110.048 55.5883 108.619 60.2942 108.143 57.9412C107.762 56.0589 108.302 54.4902 108.143 54.1765" stroke="#59BFEB" stroke-width="2" stroke-linecap="round"/>
<path d="M54.1804 49.7495C46.9389 46.954 43.5256 44.2984 42.7241 43.32C39.0468 40.9438 32.007 35.8621 31.5507 35.353C30.7015 34.4055 29.7115 33.1476 30.2778 32.278C31.2728 30.75 32.9651 30.3212 34.3794 31.2996C35.7938 32.278 44.8457 38.8472 46.5429 39.1268C48.2401 39.4063 53.6147 42.4813 53.0489 41.0836C52.4832 39.6858 45.5528 35.3529 43.1484 34.5143C40.744 33.6756 34.5209 31.1597 31.8336 30.3211C29.1463 29.4825 24.3376 25.8484 23.3475 24.171C23.1001 23.7518 22.8323 21.2716 24.9033 20.8166C26.1762 20.537 37.7739 21.7217 44.28 24.171C47.2501 25.2892 53.358 27.2426 54.1804 27.8052C56.0192 29.0631 58.3699 32.7666 56.8678 31.7187C54.4634 30.0415 49.9929 27.5431 44.5629 25.8484C39.1883 24.171 29.005 20.9564 27.8735 20.1178C26.742 19.2791 21.9326 17.3222 21.5083 15.2256C21.0839 13.129 21.4278 11.1911 23.3473 10.753C25.1855 10.3336 27.5901 10.8328 29.9943 11.1721C30.9424 11.3059 33.6974 11.5653 36.2182 12.2975M36.2182 12.2975C38.9627 13.0947 41.7656 13.9557 42.7241 14.2472C44.5629 14.8064 49.2302 17.6017 51.6347 18.7199C53.9943 19.8173 60.9694 20.3972 62.2423 19.5586C63.5153 18.7199 60.5451 19.5585 56.8678 18.4404C53.1904 17.3222 51.9176 15.9247 49.2302 14.8064C46.5429 13.6881 45.8357 13.129 42.7241 13.129C39.6125 13.129 38.0569 13.283 36.2182 12.2975Z" stroke="#59BFEB" stroke-width="2" stroke-linecap="round"/>
<path d="M35.9345 12.1508C34.0959 10.8928 33.5301 10.6133 32.823 10.4735C32.1158 10.3337 28.8628 9.77463 28.4384 9.07577C28.0141 8.37691 26.4583 5.72124 27.4484 5.02238C28.4384 4.32352 29.1457 3.48489 31.6916 3.62466C34.2374 3.76444 38.0562 3.90408 39.3291 4.3234C40.602 4.74272 44.4208 6.00066 45.9766 6.00066C47.5324 6.00066 51.3511 6.55975 52.6241 6.8393C53.897 7.11884 58.8472 10.1939 60.8273 10.4735C62.8074 10.753 65.7776 12.1508 67.192 12.1508C68.6063 12.1508 71.8593 13.2688 73.698 14.387C75.5367 15.5052 76.5267 15.7847 77.5168 16.0642C78.5068 16.3438 80.0626 16.6233 81.6184 16.6233C82.863 16.6233 84.2114 17.7415 84.73 18.3006" stroke="#59BFEB" stroke-width="2" stroke-linecap="round"/>
<path d="M90.2459 23.7517C89.8217 20.537 89.1145 18.5801 88.4072 17.6017C87.2769 16.038 83.0327 12.8495 82.0426 11.7313C81.0526 10.6131 78.224 6.97907 75.8195 6.55976C73.4151 6.14044 69.4549 2.36659 68.4648 1.8075C67.4747 1.24841 64.929 0.549649 63.7975 1.38828C62.666 2.22691 61.8319 3.66443 62.3831 5.16207C62.9489 6.69956 63.3731 8.09728 64.9289 9.07569C66.4847 10.0541 67.4106 10.8181 68.8891 11.7313C70.0206 12.4302 71.0106 12.9893 71.7178 13.4086" stroke="#59BFEB" stroke-width="2" stroke-linecap="round"/>
</svg>
