<svg width="40" height="40" viewBox="0 0 40 40" fill="none" xmlns="http://www.w3.org/2000/svg">
<rect x="39.5" y="39.5" width="39" height="39" rx="19.5" transform="rotate(-180 39.5 39.5)" stroke="#242629"/>
<path d="M15 20C15 19.8087 15.0344 19.6231 15.1031 19.4432C15.1718 19.2634 15.2634 19.1141 15.3779 18.9955L21.6985 12.3946C21.9504 12.1315 22.271 12 22.6603 12C23.0496 12 23.3702 12.1315 23.6221 12.3946C23.874 12.6577 24 12.9925 24 13.3991C24 13.8057 23.874 14.1405 23.6221 14.4036L18.2634 20L23.6221 25.5964C23.874 25.8595 24 26.1943 24 26.6009C24 27.0075 23.874 27.3423 23.6221 27.6054C23.3702 27.8685 23.0496 28 22.6603 28C22.271 28 21.9504 27.8685 21.6985 27.6054L15.3779 21.0045C15.2405 20.861 15.1429 20.7055 15.0852 20.5381C15.0275 20.3707 14.9991 20.1913 15 20Z" fill="#242629"/>
</svg>
