<svg width="40" height="40" viewBox="0 0 40 40" fill="none" xmlns="http://www.w3.org/2000/svg">
<rect x="0.5" y="0.5" width="39" height="39" rx="19.5" stroke="#242629"/>
<path d="M25 20C25 20.1913 24.9656 20.3769 24.8969 20.5568C24.8282 20.7366 24.7366 20.8859 24.6221 21.0045L18.3015 27.6054C18.0496 27.8685 17.729 28 17.3397 28C16.9504 28 16.6298 27.8685 16.3779 27.6054C16.126 27.3423 16 27.0075 16 26.6009C16 26.1943 16.126 25.8595 16.3779 25.5964L21.7366 20L16.3779 14.4036C16.126 14.1405 16 13.8057 16 13.3991C16 12.9925 16.126 12.6577 16.3779 12.3946C16.6298 12.1315 16.9504 12 17.3397 12C17.729 12 18.0496 12.1315 18.3015 12.3946L24.6221 18.9955C24.7595 19.139 24.8571 19.2945 24.9148 19.4619C24.9725 19.6293 25.0009 19.8087 25 20Z" fill="#242629"/>
</svg>
